<svg width="45" height="45" viewBox="0 0 45 45" fill="none" xmlns="http://www.w3.org/2000/svg">
<path d="M16.875 39.375V25.5C16.875 24.4499 16.875 23.9249 17.0794 23.5238C17.2591 23.171 17.546 22.8841 17.8988 22.7044C18.2999 22.5 18.8249 22.5 19.875 22.5H25.125C26.1751 22.5 26.7002 22.5 27.1012 22.7044C27.454 22.8841 27.7409 23.171 27.9206 23.5238C28.125 23.9249 28.125 24.4499 28.125 25.5V39.375M3.75 17.8125L20.7 5.1C21.3455 4.61589 21.6682 4.37383 22.0227 4.28052C22.3356 4.19816 22.6644 4.19816 22.9773 4.28052C23.3318 4.37383 23.6545 4.61589 24.3 5.1L41.25 17.8125M7.50001 15V33.375C7.50001 35.4752 7.50001 36.5253 7.90873 37.3275C8.26826 38.0331 8.84194 38.6067 9.54754 38.9663C10.3497 39.375 11.3998 39.375 13.5 39.375H31.5C33.6002 39.375 34.6503 39.375 35.4525 38.9663C36.1581 38.6067 36.7318 38.0331 37.0913 37.3275C37.5 36.5253 37.5 35.4752 37.5 33.375V15L26.1 6.45C24.809 5.48177 24.1636 4.99766 23.4546 4.81104C22.8289 4.64632 22.1711 4.64632 21.5454 4.81104C20.8365 4.99766 20.191 5.48177 18.9 6.45L7.50001 15Z" stroke="white" stroke-linecap="round" stroke-linejoin="round"/>
</svg>
