<svg width="45" height="45" viewBox="0 0 45 45" fill="none" xmlns="http://www.w3.org/2000/svg">
<path d="M13.125 13.3724V8.36204C13.125 6.21614 13.125 5.1432 13.8146 4.54511C14.5042 3.94703 15.5664 4.09877 17.6907 4.40224L34.2235 6.76407C36.6797 7.11495 37.9077 7.29039 38.6414 8.13628C39.375 8.98217 39.375 10.2227 39.375 12.7038V32.2962C39.375 34.7773 39.375 36.0178 38.6414 36.8637C37.9077 37.7096 36.6797 37.885 34.2235 38.2359L17.6907 40.5978C15.5664 40.9012 14.5042 41.053 13.8146 40.4549C13.125 39.8568 13.125 38.7839 13.125 36.638V31.9987" stroke="white"/>
<path d="M30 22.5L30.3904 22.1877L30.6403 22.5L30.3904 22.8123L30 22.5ZM7.5 23C7.22386 23 7 22.7761 7 22.5C7 22.2239 7.22386 22 7.5 22V23ZM22.8904 12.8127L30.3904 22.1877L29.6096 22.8123L22.1096 13.4373L22.8904 12.8127ZM30.3904 22.8123L22.8904 32.1873L22.1096 31.5627L29.6096 22.1877L30.3904 22.8123ZM30 23H7.5V22H30V23Z" fill="white"/>
</svg>
