<svg width="46" height="49" viewBox="0 0 46 49" fill="none" xmlns="http://www.w3.org/2000/svg">
<path d="M30.1666 16.3333C30.1666 20.5977 26.9287 24 23 24C19.0712 24 15.8333 20.5977 15.8333 16.3333C15.8333 12.0689 19.0712 8.66663 23 8.66663C26.9287 8.66663 30.1666 12.0689 30.1666 16.3333Z" stroke="white" stroke-linecap="round"/>
<path d="M10.5228 31.0507C11.535 28.747 13.9388 27.5625 16.4551 27.5625H29.5449C32.0611 27.5625 34.465 28.747 35.4772 31.0507C36.3384 33.0108 37.1946 35.6903 37.35 38.8114C37.3775 39.363 36.9273 39.8125 36.375 39.8125H9.625C9.07271 39.8125 8.62251 39.363 8.64997 38.8114C8.80539 35.6903 9.66155 33.0108 10.5228 31.0507Z" stroke="white" stroke-linecap="round"/>
</svg>
